<svg width="19" height="19" viewBox="0 0 19 19" fill="none" xmlns="http://www.w3.org/2000/svg">
<path d="M7.29821 12.3497L14.9348 4.71307C15.115 4.53286 15.3253 4.44275 15.5656 4.44275C15.8059 4.44275 16.0161 4.53286 16.1963 4.71307C16.3766 4.89329 16.4667 5.10729 16.4667 5.35509C16.4667 5.60288 16.3766 5.81689 16.1963 5.9971L7.92897 14.287C7.74875 14.4672 7.5385 14.5573 7.29821 14.5573C7.05793 14.5573 6.84768 14.4672 6.66746 14.287L2.79283 10.4124C2.61262 10.2322 2.52627 10.0182 2.53378 9.77036C2.54128 9.52256 2.63515 9.30856 2.81536 9.12834C2.99558 8.94813 3.20958 8.85802 3.45738 8.85802C3.70517 8.85802 3.91918 8.94813 4.09939 9.12834L7.29821 12.3497Z" fill="#10310B"/>
</svg>
