<svg width="24" height="24" viewBox="0 0 24 24" fill="none" xmlns="http://www.w3.org/2000/svg">
<mask id="mask0_4059_442" style="mask-type:alpha" maskUnits="userSpaceOnUse" x="0" y="0" width="24" height="24">
<rect width="24" height="24" fill="#D9D9D9"/>
</mask>
<g mask="url(#mask0_4059_442)">
<path d="M6 22.0001V12.8501C5.1 12.6168 4.375 12.1418 3.825 11.4251C3.275 10.7085 3 9.90012 3 9.00012V2.00012H5V8.00012H6V2.00012H8V8.00012H9V2.00012H11V9.00012C11 9.90012 10.725 10.7085 10.175 11.4251C9.625 12.1418 8.9 12.6168 8 12.8501V22.0001H6ZM16 22.0001V12.4751C15.1 12.1751 14.375 11.546 13.825 10.5876C13.275 9.62929 13 8.54179 13 7.32512C13 5.84179 13.3917 4.58346 14.175 3.55012C14.9583 2.51679 15.9 2.00012 17 2.00012C18.1 2.00012 19.0417 2.52096 19.825 3.56262C20.6083 4.60429 21 5.86679 21 7.35012C21 8.56679 20.725 9.65012 20.175 10.6001C19.625 11.5501 18.9 12.1751 18 12.4751V22.0001H16Z" fill="#10310B"/>
</g>
</svg>
